<svg xmlns="http://www.w3.org/2000/svg" xmlns:xlink="http://www.w3.org/1999/xlink" width="500" zoomAndPan="magnify" viewBox="0 0 375 374.999991" height="500" preserveAspectRatio="xMidYMid meet" version="1.0"><defs><g/></defs><rect x="-37.5" width="450" fill="#ffffff" y="-37.499999" height="449.999989" fill-opacity="1"/><rect x="-37.5" width="450" fill="#ffffff" y="-37.499999" height="449.999989" fill-opacity="1"/><g fill="#000000" fill-opacity="1"><g transform="translate(96.306542, 101.966405)"><g><path d="M -2.78125 4.734375 C -2.144531 4.953125 -1.515625 5.0625 -0.890625 5.0625 C -0.273438 5.0625 0.367188 4.929688 1.046875 4.671875 C 1.722656 4.410156 2.34375 4.003906 2.90625 3.453125 C 3.46875 2.910156 3.929688 2.085938 4.296875 0.984375 C 4.660156 -0.117188 4.84375 -1.421875 4.84375 -2.921875 L 4.84375 -22.015625 C 4.820312 -22.617188 4.59375 -23.132812 4.15625 -23.5625 C 3.71875 -24 3.195312 -24.21875 2.59375 -24.21875 L 2.140625 -24.21875 L 2.140625 -24.578125 L 9.828125 -24.578125 L 9.828125 -24.21875 L 9.375 -24.21875 C 8.757812 -24.21875 8.234375 -24.007812 7.796875 -23.59375 C 7.367188 -23.175781 7.144531 -22.648438 7.125 -22.015625 L 7.125 -2.8125 C 7.125 -1.21875 6.878906 0.171875 6.390625 1.359375 C 5.898438 2.554688 5.28125 3.460938 4.53125 4.078125 C 3.125 5.171875 1.566406 5.71875 -0.140625 5.71875 C -1.148438 5.71875 -2.078125 5.519531 -2.921875 5.125 Z M -2.78125 4.734375 "/></g></g></g><g fill="#000000" fill-opacity="1"><g transform="translate(108.208626, 101.966405)"><g/></g></g><g fill="#000000" fill-opacity="1"><g transform="translate(116.985981, 101.966405)"><g><path d="M 13.90625 -15.3125 C 13.476562 -14.863281 12.992188 -14.535156 12.453125 -14.328125 C 14.753906 -13.992188 16.5 -13.175781 17.6875 -11.875 C 18.882812 -10.582031 19.484375 -9 19.484375 -7.125 C 19.484375 -4.851562 18.566406 -3.015625 16.734375 -1.609375 C 14.910156 -0.210938 12.515625 0.484375 9.546875 0.484375 C 6.578125 0.484375 4.25 -0.242188 2.5625 -1.703125 C 0.875 -3.160156 0.03125 -5.226562 0.03125 -7.90625 C 0.03125 -8.039062 0.03125 -8.179688 0.03125 -8.328125 L 0.421875 -8.390625 C 0.890625 -4.898438 2.335938 -2.640625 4.765625 -1.609375 L 4.765625 -22.046875 C 4.722656 -22.679688 4.484375 -23.203125 4.046875 -23.609375 C 3.617188 -24.015625 3.097656 -24.21875 2.484375 -24.21875 L 2.0625 -24.21875 L 2.0625 -24.578125 L 7.96875 -24.578125 C 10.164062 -24.578125 11.925781 -24.070312 13.25 -23.0625 C 14.570312 -22.0625 15.234375 -20.742188 15.234375 -19.109375 C 15.234375 -17.484375 14.789062 -16.21875 13.90625 -15.3125 Z M 7.046875 -23.453125 L 7.046875 -0.984375 C 7.828125 -0.867188 8.71875 -0.8125 9.71875 -0.8125 C 11.96875 -0.8125 13.71875 -1.410156 14.96875 -2.609375 C 16.21875 -3.816406 16.84375 -5.378906 16.84375 -7.296875 C 16.84375 -8.328125 16.648438 -9.238281 16.265625 -10.03125 C 15.878906 -10.832031 15.394531 -11.457031 14.8125 -11.90625 C 13.269531 -13.09375 11.09375 -13.6875 8.28125 -13.6875 C 8.257812 -13.6875 8.25 -13.6875 8.25 -13.6875 L 8.21875 -14.015625 C 8.238281 -14.015625 8.25 -14.015625 8.25 -14.015625 C 9.4375 -14.015625 10.457031 -14.40625 11.3125 -15.1875 C 12.164062 -15.96875 12.59375 -17.175781 12.59375 -18.8125 C 12.59375 -21.90625 10.898438 -23.453125 7.515625 -23.453125 Z M 7.046875 -23.453125 "/></g></g></g><g fill="#000000" fill-opacity="1"><g transform="translate(137.84096, 101.966405)"><g><path d="M 25.140625 -0.34375 L 25.421875 -0.34375 L 25.421875 0 L 17.515625 0 L 17.515625 -0.34375 L 17.828125 -0.34375 C 18.316406 -0.34375 18.6875 -0.5 18.9375 -0.8125 C 19.1875 -1.132812 19.3125 -1.4375 19.3125 -1.71875 C 19.3125 -2 19.265625 -2.28125 19.171875 -2.5625 L 16.921875 -8.53125 L 7.4375 -8.53125 L 5.09375 -2.53125 C 5 -2.25 4.953125 -1.972656 4.953125 -1.703125 C 4.953125 -1.429688 5.070312 -1.132812 5.3125 -0.8125 C 5.5625 -0.5 5.929688 -0.34375 6.421875 -0.34375 L 6.734375 -0.34375 L 6.734375 0 L -0.3125 0 L -0.3125 -0.34375 L 0 -0.34375 C 0.582031 -0.34375 1.15625 -0.53125 1.71875 -0.90625 C 2.28125 -1.28125 2.734375 -1.832031 3.078125 -2.5625 L 11.015625 -21.453125 C 11.878906 -23.347656 12.3125 -24.550781 12.3125 -25.0625 L 12.640625 -25.0625 L 22.046875 -2.5625 C 22.367188 -1.832031 22.8125 -1.28125 23.375 -0.90625 C 23.9375 -0.53125 24.523438 -0.34375 25.140625 -0.34375 Z M 7.859375 -9.578125 L 16.5 -9.578125 L 12.28125 -20.859375 Z M 7.859375 -9.578125 "/></g></g></g><g fill="#000000" fill-opacity="1"><g transform="translate(162.838849, 101.966405)"><g><path d="M 9.34375 -23.484375 L 7.09375 -23.484375 L 7.09375 -2.5625 C 7.09375 -1.957031 7.304688 -1.4375 7.734375 -1 C 8.171875 -0.5625 8.707031 -0.34375 9.34375 -0.34375 L 9.765625 -0.34375 L 9.796875 0 L 2.109375 0 L 2.109375 -0.34375 L 2.5625 -0.34375 C 3.164062 -0.34375 3.6875 -0.550781 4.125 -0.96875 C 4.5625 -1.394531 4.789062 -1.914062 4.8125 -2.53125 L 4.8125 -22.015625 C 4.789062 -22.617188 4.5625 -23.132812 4.125 -23.5625 C 3.6875 -24 3.164062 -24.21875 2.5625 -24.21875 L 2.109375 -24.21875 L 2.109375 -24.578125 L 11.59375 -24.578125 C 13.71875 -24.578125 15.390625 -23.984375 16.609375 -22.796875 C 17.828125 -21.617188 18.4375 -20.085938 18.4375 -18.203125 C 18.4375 -16.316406 17.851562 -14.6875 16.6875 -13.3125 C 15.53125 -11.945312 14.125 -11.265625 12.46875 -11.265625 C 12.8125 -11.109375 13.222656 -10.785156 13.703125 -10.296875 C 14.191406 -9.816406 14.617188 -9.320312 14.984375 -8.8125 C 17.003906 -5.9375 18.316406 -4.164062 18.921875 -3.5 C 19.535156 -2.832031 19.96875 -2.375 20.21875 -2.125 C 20.476562 -1.875 20.757812 -1.628906 21.0625 -1.390625 C 21.363281 -1.160156 21.671875 -0.976562 21.984375 -0.84375 C 22.660156 -0.507812 23.382812 -0.34375 24.15625 -0.34375 L 24.15625 0 L 22.21875 0 C 21.21875 0 20.28125 -0.179688 19.40625 -0.546875 C 18.539062 -0.910156 17.890625 -1.285156 17.453125 -1.671875 C 17.023438 -2.054688 16.65625 -2.425781 16.34375 -2.78125 C 16.03125 -3.144531 15.160156 -4.359375 13.734375 -6.421875 C 12.304688 -8.484375 11.472656 -9.660156 11.234375 -9.953125 C 11.003906 -10.242188 10.757812 -10.53125 10.5 -10.8125 C 9.75 -11.601562 9 -12 8.25 -12 L 8.25 -12.359375 C 8.4375 -12.335938 8.679688 -12.328125 8.984375 -12.328125 C 9.285156 -12.328125 9.660156 -12.335938 10.109375 -12.359375 C 13.015625 -12.429688 14.84375 -13.648438 15.59375 -16.015625 C 15.726562 -16.484375 15.796875 -16.921875 15.796875 -17.328125 C 15.796875 -17.734375 15.796875 -17.992188 15.796875 -18.109375 C 15.753906 -19.679688 15.34375 -20.945312 14.5625 -21.90625 C 13.789062 -22.863281 12.753906 -23.378906 11.453125 -23.453125 C 10.890625 -23.472656 10.1875 -23.484375 9.34375 -23.484375 Z M 9.34375 -23.484375 "/></g></g></g><g fill="#000000" fill-opacity="1"><g transform="translate(186.607917, 101.966405)"><g><path d="M 10.671875 0 L 2.109375 0 L 2.140625 -0.34375 L 2.5625 -0.34375 C 3.164062 -0.34375 3.6875 -0.550781 4.125 -0.96875 C 4.5625 -1.394531 4.789062 -1.914062 4.8125 -2.53125 L 4.8125 -22.046875 C 4.789062 -22.660156 4.5625 -23.175781 4.125 -23.59375 C 3.6875 -24.007812 3.164062 -24.21875 2.5625 -24.21875 L 2.140625 -24.21875 L 2.109375 -24.578125 L 9.09375 -24.578125 C 11.5 -24.578125 13.367188 -24.039062 14.703125 -22.96875 C 16.046875 -21.90625 16.71875 -20.488281 16.71875 -18.71875 C 16.71875 -17.3125 16.34375 -16.144531 15.59375 -15.21875 C 14.84375 -14.289062 13.925781 -13.675781 12.84375 -13.375 C 14.695312 -13.09375 16.160156 -12.332031 17.234375 -11.09375 C 18.316406 -9.851562 18.859375 -8.289062 18.859375 -6.40625 C 18.859375 -4.519531 18.132812 -2.976562 16.6875 -1.78125 C 15.25 -0.59375 13.242188 0 10.671875 0 Z M 7.09375 -1.296875 L 10.53125 -1.296875 C 10.550781 -1.296875 10.578125 -1.296875 10.609375 -1.296875 C 12.378906 -1.296875 13.753906 -1.773438 14.734375 -2.734375 C 15.722656 -3.691406 16.21875 -5.0625 16.21875 -6.84375 C 16.21875 -7.851562 16.046875 -8.738281 15.703125 -9.5 C 15.367188 -10.257812 14.945312 -10.863281 14.4375 -11.3125 C 13.070312 -12.425781 11.035156 -12.984375 8.328125 -12.984375 C 8.328125 -12.984375 8.3125 -12.984375 8.28125 -12.984375 L 8.28125 -13.3125 C 11.375 -13.3125 13.238281 -14.457031 13.875 -16.75 C 14.007812 -17.257812 14.078125 -17.832031 14.078125 -18.46875 C 14.078125 -20.0625 13.640625 -21.289062 12.765625 -22.15625 C 11.890625 -23.019531 10.617188 -23.453125 8.953125 -23.453125 L 7.09375 -23.453125 Z M 7.09375 -1.296875 "/></g></g></g><g fill="#000000" fill-opacity="1"><g transform="translate(207.182024, 101.966405)"><g><path d="M 5.15625 -21.53125 C 7.664062 -23.882812 10.914062 -25.0625 14.90625 -25.0625 C 18.894531 -25.0625 22.140625 -23.882812 24.640625 -21.53125 C 27.148438 -19.1875 28.40625 -16.101562 28.40625 -12.28125 C 28.40625 -8.46875 27.148438 -5.382812 24.640625 -3.03125 C 22.140625 -0.6875 18.894531 0.484375 14.90625 0.484375 C 10.914062 0.484375 7.664062 -0.6875 5.15625 -3.03125 C 2.65625 -5.382812 1.40625 -8.46875 1.40625 -12.28125 C 1.40625 -16.101562 2.65625 -19.1875 5.15625 -21.53125 Z M 7.078125 -3.78125 C 9.054688 -1.632812 11.660156 -0.5625 14.890625 -0.5625 C 18.117188 -0.5625 20.722656 -1.632812 22.703125 -3.78125 C 24.679688 -5.9375 25.671875 -8.769531 25.671875 -12.28125 C 25.671875 -15.789062 24.679688 -18.625 22.703125 -20.78125 C 20.722656 -22.9375 18.117188 -24.015625 14.890625 -24.015625 C 11.660156 -24.015625 9.054688 -22.9375 7.078125 -20.78125 C 5.097656 -18.625 4.109375 -15.789062 4.109375 -12.28125 C 4.109375 -8.769531 5.097656 -5.9375 7.078125 -3.78125 Z M 7.078125 -3.78125 "/></g></g></g><g fill="#000000" fill-opacity="1"><g transform="translate(236.9548, 101.966405)"><g><path d="M 2.140625 -1.4375 C 2.066406 -1.769531 2.03125 -2.398438 2.03125 -3.328125 C 2.03125 -4.265625 2.207031 -5.257812 2.5625 -6.3125 L 2.875 -6.3125 C 2.851562 -6.0625 2.84375 -5.804688 2.84375 -5.546875 C 2.84375 -4.117188 3.273438 -2.929688 4.140625 -1.984375 C 5.003906 -1.035156 6.148438 -0.5625 7.578125 -0.5625 C 9.054688 -0.5625 10.269531 -1.003906 11.21875 -1.890625 C 12.164062 -2.785156 12.640625 -3.90625 12.640625 -5.25 C 12.640625 -6.59375 12.179688 -7.6875 11.265625 -8.53125 L 4.53125 -14.78125 C 3.269531 -15.945312 2.640625 -17.359375 2.640625 -19.015625 C 2.640625 -20.679688 3.191406 -22.101562 4.296875 -23.28125 C 5.410156 -24.46875 6.914062 -25.0625 8.8125 -25.0625 C 9.695312 -25.0625 10.703125 -24.945312 11.828125 -24.71875 L 13.203125 -24.71875 L 13.203125 -20.40625 L 12.890625 -20.40625 C 12.890625 -21.5 12.507812 -22.375 11.75 -23.03125 C 10.988281 -23.6875 10.007812 -24.015625 8.8125 -24.015625 C 7.613281 -24.015625 6.609375 -23.613281 5.796875 -22.8125 C 4.992188 -22.019531 4.59375 -21.023438 4.59375 -19.828125 C 4.59375 -18.640625 5.0625 -17.613281 6 -16.75 L 12.921875 -10.359375 C 14.085938 -9.285156 14.671875 -7.8125 14.671875 -5.9375 C 14.671875 -4.0625 14.070312 -2.519531 12.875 -1.3125 C 11.6875 -0.113281 10.097656 0.484375 8.109375 0.484375 C 7.078125 0.484375 5.984375 0.328125 4.828125 0.015625 C 3.671875 -0.296875 2.773438 -0.78125 2.140625 -1.4375 Z M 2.140625 -1.4375 "/></g></g></g><g fill="#000000" fill-opacity="1"><g transform="translate(253.666869, 101.966405)"><g><path d="M 25.140625 -0.34375 L 25.421875 -0.34375 L 25.421875 0 L 17.515625 0 L 17.515625 -0.34375 L 17.828125 -0.34375 C 18.316406 -0.34375 18.6875 -0.5 18.9375 -0.8125 C 19.1875 -1.132812 19.3125 -1.4375 19.3125 -1.71875 C 19.3125 -2 19.265625 -2.28125 19.171875 -2.5625 L 16.921875 -8.53125 L 7.4375 -8.53125 L 5.09375 -2.53125 C 5 -2.25 4.953125 -1.972656 4.953125 -1.703125 C 4.953125 -1.429688 5.070312 -1.132812 5.3125 -0.8125 C 5.5625 -0.5 5.929688 -0.34375 6.421875 -0.34375 L 6.734375 -0.34375 L 6.734375 0 L -0.3125 0 L -0.3125 -0.34375 L 0 -0.34375 C 0.582031 -0.34375 1.15625 -0.53125 1.71875 -0.90625 C 2.28125 -1.28125 2.734375 -1.832031 3.078125 -2.5625 L 11.015625 -21.453125 C 11.878906 -23.347656 12.3125 -24.550781 12.3125 -25.0625 L 12.640625 -25.0625 L 22.046875 -2.5625 C 22.367188 -1.832031 22.8125 -1.28125 23.375 -0.90625 C 23.9375 -0.53125 24.523438 -0.34375 25.140625 -0.34375 Z M 7.859375 -9.578125 L 16.5 -9.578125 L 12.28125 -20.859375 Z M 7.859375 -9.578125 "/></g></g></g><g fill="#000000" fill-opacity="1"><g transform="translate(57.693264, 150.716402)"><g><path d="M 38.625 5.6875 C 38.757812 5.6875 38.898438 5.6875 39.046875 5.6875 L 39.046875 6.03125 C 38.390625 6.125 37.65625 6.171875 36.84375 6.171875 C 36.039062 6.171875 35.046875 5.992188 33.859375 5.640625 C 32.679688 5.296875 31.613281 4.644531 30.65625 3.6875 C 28.6875 1.71875 27.488281 -0.832031 27.0625 -3.96875 L 24.921875 -19.59375 L 17.625 -3.09375 C 16.96875 -1.664062 16.570312 -0.472656 16.4375 0.484375 L 16.078125 0.484375 L 6.984375 -19.28125 L 5.4375 -1.828125 C 5.394531 -1.429688 5.519531 -1.078125 5.8125 -0.765625 C 6.101562 -0.460938 6.425781 -0.3125 6.78125 -0.3125 L 7.34375 -0.3125 L 7.34375 0 L 0.53125 0 L 0.53125 -0.34375 L 1.09375 -0.34375 C 1.71875 -0.34375 2.269531 -0.535156 2.75 -0.921875 C 3.226562 -1.316406 3.53125 -1.828125 3.65625 -2.453125 L 5.859375 -21.625 C 3.804688 -25.675781 1.335938 -27.703125 -1.546875 -27.703125 C -1.804688 -27.703125 -2.078125 -27.691406 -2.359375 -27.671875 L -2.359375 -28.015625 C -1.722656 -28.179688 -1.203125 -28.265625 -0.796875 -28.265625 C -0.398438 -28.265625 0.0234375 -28.242188 0.484375 -28.203125 C 0.953125 -28.171875 1.503906 -28.0625 2.140625 -27.875 C 2.773438 -27.6875 3.375 -27.410156 3.9375 -27.046875 C 4.5 -26.679688 4.988281 -26.304688 5.40625 -25.921875 C 5.820312 -25.535156 6.21875 -25.109375 6.59375 -24.640625 C 7.226562 -23.796875 7.734375 -22.988281 8.109375 -22.21875 L 16.578125 -3.890625 L 26.015625 -25.0625 L 26.328125 -25.0625 L 29.59375 -4.28125 C 30.082031 -1.007812 31.140625 1.46875 32.765625 3.15625 C 34.398438 4.84375 36.351562 5.6875 38.625 5.6875 Z M 38.625 5.6875 "/></g></g></g><g fill="#000000" fill-opacity="1"><g transform="translate(90.380117, 150.716402)"><g><path d="M 25.140625 -0.34375 L 25.421875 -0.34375 L 25.421875 0 L 17.515625 0 L 17.515625 -0.34375 L 17.828125 -0.34375 C 18.316406 -0.34375 18.6875 -0.5 18.9375 -0.8125 C 19.1875 -1.132812 19.3125 -1.4375 19.3125 -1.71875 C 19.3125 -2 19.265625 -2.28125 19.171875 -2.5625 L 16.921875 -8.53125 L 7.4375 -8.53125 L 5.09375 -2.53125 C 5 -2.25 4.953125 -1.972656 4.953125 -1.703125 C 4.953125 -1.429688 5.070312 -1.132812 5.3125 -0.8125 C 5.5625 -0.5 5.929688 -0.34375 6.421875 -0.34375 L 6.734375 -0.34375 L 6.734375 0 L -0.3125 0 L -0.3125 -0.34375 L 0 -0.34375 C 0.582031 -0.34375 1.15625 -0.53125 1.71875 -0.90625 C 2.28125 -1.28125 2.734375 -1.832031 3.078125 -2.5625 L 11.015625 -21.453125 C 11.878906 -23.347656 12.3125 -24.550781 12.3125 -25.0625 L 12.640625 -25.0625 L 22.046875 -2.5625 C 22.367188 -1.832031 22.8125 -1.28125 23.375 -0.90625 C 23.9375 -0.53125 24.523438 -0.34375 25.140625 -0.34375 Z M 7.859375 -9.578125 L 16.5 -9.578125 L 12.28125 -20.859375 Z M 7.859375 -9.578125 "/></g></g></g><g fill="#000000" fill-opacity="1"><g transform="translate(115.378006, 150.716402)"><g><path d="M 9.34375 -23.484375 L 7.09375 -23.484375 L 7.09375 -2.5625 C 7.09375 -1.957031 7.304688 -1.4375 7.734375 -1 C 8.171875 -0.5625 8.707031 -0.34375 9.34375 -0.34375 L 9.765625 -0.34375 L 9.796875 0 L 2.109375 0 L 2.109375 -0.34375 L 2.5625 -0.34375 C 3.164062 -0.34375 3.6875 -0.550781 4.125 -0.96875 C 4.5625 -1.394531 4.789062 -1.914062 4.8125 -2.53125 L 4.8125 -22.015625 C 4.789062 -22.617188 4.5625 -23.132812 4.125 -23.5625 C 3.6875 -24 3.164062 -24.21875 2.5625 -24.21875 L 2.109375 -24.21875 L 2.109375 -24.578125 L 11.59375 -24.578125 C 13.71875 -24.578125 15.390625 -23.984375 16.609375 -22.796875 C 17.828125 -21.617188 18.4375 -20.085938 18.4375 -18.203125 C 18.4375 -16.316406 17.851562 -14.6875 16.6875 -13.3125 C 15.53125 -11.945312 14.125 -11.265625 12.46875 -11.265625 C 12.8125 -11.109375 13.222656 -10.785156 13.703125 -10.296875 C 14.191406 -9.816406 14.617188 -9.320312 14.984375 -8.8125 C 17.003906 -5.9375 18.316406 -4.164062 18.921875 -3.5 C 19.535156 -2.832031 19.96875 -2.375 20.21875 -2.125 C 20.476562 -1.875 20.757812 -1.628906 21.0625 -1.390625 C 21.363281 -1.160156 21.671875 -0.976562 21.984375 -0.84375 C 22.660156 -0.507812 23.382812 -0.34375 24.15625 -0.34375 L 24.15625 0 L 22.21875 0 C 21.21875 0 20.28125 -0.179688 19.40625 -0.546875 C 18.539062 -0.910156 17.890625 -1.285156 17.453125 -1.671875 C 17.023438 -2.054688 16.65625 -2.425781 16.34375 -2.78125 C 16.03125 -3.144531 15.160156 -4.359375 13.734375 -6.421875 C 12.304688 -8.484375 11.472656 -9.660156 11.234375 -9.953125 C 11.003906 -10.242188 10.757812 -10.53125 10.5 -10.8125 C 9.75 -11.601562 9 -12 8.25 -12 L 8.25 -12.359375 C 8.4375 -12.335938 8.679688 -12.328125 8.984375 -12.328125 C 9.285156 -12.328125 9.660156 -12.335938 10.109375 -12.359375 C 13.015625 -12.429688 14.84375 -13.648438 15.59375 -16.015625 C 15.726562 -16.484375 15.796875 -16.921875 15.796875 -17.328125 C 15.796875 -17.734375 15.796875 -17.992188 15.796875 -18.109375 C 15.753906 -19.679688 15.34375 -20.945312 14.5625 -21.90625 C 13.789062 -22.863281 12.753906 -23.378906 11.453125 -23.453125 C 10.890625 -23.472656 10.1875 -23.484375 9.34375 -23.484375 Z M 9.34375 -23.484375 "/></g></g></g><g fill="#000000" fill-opacity="1"><g transform="translate(139.147074, 150.716402)"><g><path d="M 31.59375 -0.34375 L 32.15625 -0.34375 L 32.15625 0 L 24.546875 0 L 24.546875 -0.3125 L 25.0625 -0.3125 C 25.46875 -0.3125 25.804688 -0.460938 26.078125 -0.765625 C 26.359375 -1.078125 26.476562 -1.429688 26.4375 -1.828125 L 24.859375 -19.484375 L 17.484375 -3.09375 C 16.828125 -1.664062 16.429688 -0.472656 16.296875 0.484375 L 15.9375 0.484375 L 6.953125 -19 L 5.4375 -1.828125 C 5.394531 -1.453125 5.515625 -1.101562 5.796875 -0.78125 C 6.078125 -0.46875 6.414062 -0.3125 6.8125 -0.3125 L 7.34375 -0.3125 L 7.34375 0 L 0.53125 0 L 0.53125 -0.34375 L 1.09375 -0.34375 C 1.75 -0.34375 2.316406 -0.539062 2.796875 -0.9375 C 3.273438 -1.34375 3.5625 -1.882812 3.65625 -2.5625 L 6.28125 -25.0625 L 6.640625 -25.0625 L 16.4375 -3.890625 L 26.015625 -25.0625 L 26.328125 -25.0625 L 29.03125 -2.5625 C 29.125 -1.882812 29.414062 -1.34375 29.90625 -0.9375 C 30.40625 -0.539062 30.96875 -0.34375 31.59375 -0.34375 Z M 31.59375 -0.34375 "/></g></g></g><g fill="#000000" fill-opacity="1"><g transform="translate(171.833928, 150.716402)"><g><path d="M 5.15625 -21.53125 C 7.664062 -23.882812 10.914062 -25.0625 14.90625 -25.0625 C 18.894531 -25.0625 22.140625 -23.882812 24.640625 -21.53125 C 27.148438 -19.1875 28.40625 -16.101562 28.40625 -12.28125 C 28.40625 -8.46875 27.148438 -5.382812 24.640625 -3.03125 C 22.140625 -0.6875 18.894531 0.484375 14.90625 0.484375 C 10.914062 0.484375 7.664062 -0.6875 5.15625 -3.03125 C 2.65625 -5.382812 1.40625 -8.46875 1.40625 -12.28125 C 1.40625 -16.101562 2.65625 -19.1875 5.15625 -21.53125 Z M 7.078125 -3.78125 C 9.054688 -1.632812 11.660156 -0.5625 14.890625 -0.5625 C 18.117188 -0.5625 20.722656 -1.632812 22.703125 -3.78125 C 24.679688 -5.9375 25.671875 -8.769531 25.671875 -12.28125 C 25.671875 -15.789062 24.679688 -18.625 22.703125 -20.78125 C 20.722656 -22.9375 18.117188 -24.015625 14.890625 -24.015625 C 11.660156 -24.015625 9.054688 -22.9375 7.078125 -20.78125 C 5.097656 -18.625 4.109375 -15.789062 4.109375 -12.28125 C 4.109375 -8.769531 5.097656 -5.9375 7.078125 -3.78125 Z M 7.078125 -3.78125 "/></g></g></g><g fill="#000000" fill-opacity="1"><g transform="translate(201.606704, 150.716402)"><g><path d="M 9.34375 -23.484375 L 7.09375 -23.484375 L 7.09375 -2.5625 C 7.09375 -1.957031 7.304688 -1.4375 7.734375 -1 C 8.171875 -0.5625 8.707031 -0.34375 9.34375 -0.34375 L 9.765625 -0.34375 L 9.796875 0 L 2.109375 0 L 2.109375 -0.34375 L 2.5625 -0.34375 C 3.164062 -0.34375 3.6875 -0.550781 4.125 -0.96875 C 4.5625 -1.394531 4.789062 -1.914062 4.8125 -2.53125 L 4.8125 -22.015625 C 4.789062 -22.617188 4.5625 -23.132812 4.125 -23.5625 C 3.6875 -24 3.164062 -24.21875 2.5625 -24.21875 L 2.109375 -24.21875 L 2.109375 -24.578125 L 11.59375 -24.578125 C 13.71875 -24.578125 15.390625 -23.984375 16.609375 -22.796875 C 17.828125 -21.617188 18.4375 -20.085938 18.4375 -18.203125 C 18.4375 -16.316406 17.851562 -14.6875 16.6875 -13.3125 C 15.53125 -11.945312 14.125 -11.265625 12.46875 -11.265625 C 12.8125 -11.109375 13.222656 -10.785156 13.703125 -10.296875 C 14.191406 -9.816406 14.617188 -9.320312 14.984375 -8.8125 C 17.003906 -5.9375 18.316406 -4.164062 18.921875 -3.5 C 19.535156 -2.832031 19.96875 -2.375 20.21875 -2.125 C 20.476562 -1.875 20.757812 -1.628906 21.0625 -1.390625 C 21.363281 -1.160156 21.671875 -0.976562 21.984375 -0.84375 C 22.660156 -0.507812 23.382812 -0.34375 24.15625 -0.34375 L 24.15625 0 L 22.21875 0 C 21.21875 0 20.28125 -0.179688 19.40625 -0.546875 C 18.539062 -0.910156 17.890625 -1.285156 17.453125 -1.671875 C 17.023438 -2.054688 16.65625 -2.425781 16.34375 -2.78125 C 16.03125 -3.144531 15.160156 -4.359375 13.734375 -6.421875 C 12.304688 -8.484375 11.472656 -9.660156 11.234375 -9.953125 C 11.003906 -10.242188 10.757812 -10.53125 10.5 -10.8125 C 9.75 -11.601562 9 -12 8.25 -12 L 8.25 -12.359375 C 8.4375 -12.335938 8.679688 -12.328125 8.984375 -12.328125 C 9.285156 -12.328125 9.660156 -12.335938 10.109375 -12.359375 C 13.015625 -12.429688 14.84375 -13.648438 15.59375 -16.015625 C 15.726562 -16.484375 15.796875 -16.921875 15.796875 -17.328125 C 15.796875 -17.734375 15.796875 -17.992188 15.796875 -18.109375 C 15.753906 -19.679688 15.34375 -20.945312 14.5625 -21.90625 C 13.789062 -22.863281 12.753906 -23.378906 11.453125 -23.453125 C 10.890625 -23.472656 10.1875 -23.484375 9.34375 -23.484375 Z M 9.34375 -23.484375 "/></g></g></g><g fill="#000000" fill-opacity="1"><g transform="translate(225.375772, 150.716402)"><g><path d="M 25.140625 -0.34375 L 25.421875 -0.34375 L 25.421875 0 L 17.515625 0 L 17.515625 -0.34375 L 17.828125 -0.34375 C 18.316406 -0.34375 18.6875 -0.5 18.9375 -0.8125 C 19.1875 -1.132812 19.3125 -1.4375 19.3125 -1.71875 C 19.3125 -2 19.265625 -2.28125 19.171875 -2.5625 L 16.921875 -8.53125 L 7.4375 -8.53125 L 5.09375 -2.53125 C 5 -2.25 4.953125 -1.972656 4.953125 -1.703125 C 4.953125 -1.429688 5.070312 -1.132812 5.3125 -0.8125 C 5.5625 -0.5 5.929688 -0.34375 6.421875 -0.34375 L 6.734375 -0.34375 L 6.734375 0 L -0.3125 0 L -0.3125 -0.34375 L 0 -0.34375 C 0.582031 -0.34375 1.15625 -0.53125 1.71875 -0.90625 C 2.28125 -1.28125 2.734375 -1.832031 3.078125 -2.5625 L 11.015625 -21.453125 C 11.878906 -23.347656 12.3125 -24.550781 12.3125 -25.0625 L 12.640625 -25.0625 L 22.046875 -2.5625 C 22.367188 -1.832031 22.8125 -1.28125 23.375 -0.90625 C 23.9375 -0.53125 24.523438 -0.34375 25.140625 -0.34375 Z M 7.859375 -9.578125 L 16.5 -9.578125 L 12.28125 -20.859375 Z M 7.859375 -9.578125 "/></g></g></g><g fill="#000000" fill-opacity="1"><g transform="translate(250.373672, 150.716402)"><g><path d="M 9.34375 -23.484375 L 7.09375 -23.484375 L 7.09375 -2.5625 C 7.09375 -1.957031 7.304688 -1.4375 7.734375 -1 C 8.171875 -0.5625 8.707031 -0.34375 9.34375 -0.34375 L 9.765625 -0.34375 L 9.796875 0 L 2.109375 0 L 2.109375 -0.34375 L 2.5625 -0.34375 C 3.164062 -0.34375 3.6875 -0.550781 4.125 -0.96875 C 4.5625 -1.394531 4.789062 -1.914062 4.8125 -2.53125 L 4.8125 -22.015625 C 4.789062 -22.617188 4.5625 -23.132812 4.125 -23.5625 C 3.6875 -24 3.164062 -24.21875 2.5625 -24.21875 L 2.109375 -24.21875 L 2.109375 -24.578125 L 11.59375 -24.578125 C 13.71875 -24.578125 15.390625 -23.984375 16.609375 -22.796875 C 17.828125 -21.617188 18.4375 -20.085938 18.4375 -18.203125 C 18.4375 -16.316406 17.851562 -14.6875 16.6875 -13.3125 C 15.53125 -11.945312 14.125 -11.265625 12.46875 -11.265625 C 12.8125 -11.109375 13.222656 -10.785156 13.703125 -10.296875 C 14.191406 -9.816406 14.617188 -9.320312 14.984375 -8.8125 C 17.003906 -5.9375 18.316406 -4.164062 18.921875 -3.5 C 19.535156 -2.832031 19.96875 -2.375 20.21875 -2.125 C 20.476562 -1.875 20.757812 -1.628906 21.0625 -1.390625 C 21.363281 -1.160156 21.671875 -0.976562 21.984375 -0.84375 C 22.660156 -0.507812 23.382812 -0.34375 24.15625 -0.34375 L 24.15625 0 L 22.21875 0 C 21.21875 0 20.28125 -0.179688 19.40625 -0.546875 C 18.539062 -0.910156 17.890625 -1.285156 17.453125 -1.671875 C 17.023438 -2.054688 16.65625 -2.425781 16.34375 -2.78125 C 16.03125 -3.144531 15.160156 -4.359375 13.734375 -6.421875 C 12.304688 -8.484375 11.472656 -9.660156 11.234375 -9.953125 C 11.003906 -10.242188 10.757812 -10.53125 10.5 -10.8125 C 9.75 -11.601562 9 -12 8.25 -12 L 8.25 -12.359375 C 8.4375 -12.335938 8.679688 -12.328125 8.984375 -12.328125 C 9.285156 -12.328125 9.660156 -12.335938 10.109375 -12.359375 C 13.015625 -12.429688 14.84375 -13.648438 15.59375 -16.015625 C 15.726562 -16.484375 15.796875 -16.921875 15.796875 -17.328125 C 15.796875 -17.734375 15.796875 -17.992188 15.796875 -18.109375 C 15.753906 -19.679688 15.34375 -20.945312 14.5625 -21.90625 C 13.789062 -22.863281 12.753906 -23.378906 11.453125 -23.453125 C 10.890625 -23.472656 10.1875 -23.484375 9.34375 -23.484375 Z M 9.34375 -23.484375 "/></g></g></g><g fill="#000000" fill-opacity="1"><g transform="translate(274.142729, 150.716402)"><g><path d="M 2.5625 -0.34375 C 3.164062 -0.34375 3.6875 -0.5625 4.125 -1 C 4.5625 -1.4375 4.789062 -1.957031 4.8125 -2.5625 L 4.8125 -22.046875 C 4.789062 -22.660156 4.5625 -23.175781 4.125 -23.59375 C 3.6875 -24.007812 3.164062 -24.21875 2.5625 -24.21875 L 2.109375 -24.21875 L 2.109375 -24.578125 L 9.796875 -24.578125 L 9.796875 -24.21875 L 9.34375 -24.21875 C 8.726562 -24.21875 8.203125 -24.007812 7.765625 -23.59375 C 7.335938 -23.175781 7.113281 -22.660156 7.09375 -22.046875 L 7.09375 -2.5625 C 7.09375 -1.957031 7.3125 -1.4375 7.75 -1 C 8.195312 -0.5625 8.726562 -0.34375 9.34375 -0.34375 L 9.796875 -0.34375 L 9.796875 0 L 2.109375 0 L 2.109375 -0.34375 Z M 2.5625 -0.34375 "/></g></g></g><g fill="#000000" fill-opacity="1"><g transform="translate(286.009702, 150.716402)"><g><path d="M 25.140625 -0.34375 L 25.421875 -0.34375 L 25.421875 0 L 17.515625 0 L 17.515625 -0.34375 L 17.828125 -0.34375 C 18.316406 -0.34375 18.6875 -0.5 18.9375 -0.8125 C 19.1875 -1.132812 19.3125 -1.4375 19.3125 -1.71875 C 19.3125 -2 19.265625 -2.28125 19.171875 -2.5625 L 16.921875 -8.53125 L 7.4375 -8.53125 L 5.09375 -2.53125 C 5 -2.25 4.953125 -1.972656 4.953125 -1.703125 C 4.953125 -1.429688 5.070312 -1.132812 5.3125 -0.8125 C 5.5625 -0.5 5.929688 -0.34375 6.421875 -0.34375 L 6.734375 -0.34375 L 6.734375 0 L -0.3125 0 L -0.3125 -0.34375 L 0 -0.34375 C 0.582031 -0.34375 1.15625 -0.53125 1.71875 -0.90625 C 2.28125 -1.28125 2.734375 -1.832031 3.078125 -2.5625 L 11.015625 -21.453125 C 11.878906 -23.347656 12.3125 -24.550781 12.3125 -25.0625 L 12.640625 -25.0625 L 22.046875 -2.5625 C 22.367188 -1.832031 22.8125 -1.28125 23.375 -0.90625 C 23.9375 -0.53125 24.523438 -0.34375 25.140625 -0.34375 Z M 7.859375 -9.578125 L 16.5 -9.578125 L 12.28125 -20.859375 Z M 7.859375 -9.578125 "/></g></g></g><g fill="#000000" fill-opacity="1"><g transform="translate(311.007579, 150.716402)"><g><path d="M 4.28125 -0.3125 C 3.976562 -0.0078125 3.601562 0.140625 3.15625 0.140625 C 2.71875 0.140625 2.34375 -0.0078125 2.03125 -0.3125 C 1.726562 -0.613281 1.578125 -0.988281 1.578125 -1.4375 C 1.578125 -1.882812 1.726562 -2.257812 2.03125 -2.5625 C 2.34375 -2.863281 2.71875 -3.015625 3.15625 -3.015625 C 3.601562 -3.015625 3.976562 -2.863281 4.28125 -2.5625 C 4.582031 -2.257812 4.734375 -1.882812 4.734375 -1.4375 C 4.734375 -0.988281 4.582031 -0.613281 4.28125 -0.3125 Z M 4.28125 -0.3125 "/></g></g></g></svg>